<?xml version="1.0" encoding="utf-8"?>
<!-- Generator: Adobe Illustrator 25.4.1, SVG Export Plug-In . SVG Version: 6.00 Build 0)  -->
<svg version="1.1" id="Original" xmlns="http://www.w3.org/2000/svg" xmlns:xlink="http://www.w3.org/1999/xlink" x="0px" y="0px"
	 viewBox="0 0 251 251.8" style="enable-background:new 0 0 251 251.8;" xml:space="preserve">
<style type="text/css">
	.st0{fill:#FFFFFF;stroke:#68BD4B;stroke-miterlimit:10;}
</style>
<g id="Forma">
	<polygon class="st0" points="145.6,74.8 103.1,74.8 73,104.9 73,147.4 103.1,177.5 145.6,177.5 175.7,147.4 175.7,104.9 	"/>
	<polygon class="st0" points="73,24.5 103.1,54.6 145.6,54.6 175.7,24.5 175.7,3.2 73,3.2 	"/>
	<polygon class="st0" points="175.7,227.1 145.6,197 103.1,197 73,227.1 73,248.2 175.7,248.2 	"/>
	<polygon class="st0" points="23.1,177.1 53.1,147 53.1,104.5 23.1,74.5 1.9,74.5 1.9,177.1 	"/>
	<polygon class="st0" points="225.6,74.5 195.6,104.5 195.6,147 225.6,177.1 247,177.1 247,74.5 	"/>
	<polygon class="st0" points="90.1,68.6 51.9,29.8 51.9,3.2 1.9,3.2 1.9,54.4 29.5,54.4 66.8,92.4 	"/>
	<polygon class="st0" points="67.4,160 28.4,198.3 1.9,198.3 1.9,248.2 52.9,248.2 52.9,220.7 91,183.3 	"/>
	<polygon class="st0" points="158.6,182.8 196.8,221.7 196.8,248.2 246.8,248.2 246.8,197.2 219.2,197.2 181.9,159.1 	"/>
	<polygon class="st0" points="181.5,91.4 220.5,53.3 247,53.3 247,3.2 195.9,3.2 195.9,30.7 157.7,68.1 	"/>
</g>
</svg>
