<?xml version="1.0" encoding="utf-8"?>
<!-- Generator: Adobe Illustrator 25.4.1, SVG Export Plug-In . SVG Version: 6.00 Build 0)  -->
<svg version="1.1" id="Original" xmlns="http://www.w3.org/2000/svg" xmlns:xlink="http://www.w3.org/1999/xlink" x="0px" y="0px"
	 viewBox="0 0 603 179.5" style="enable-background:new 0 0 603 179.5;" xml:space="preserve">
<style type="text/css">
	.st0{display:none;}
	.st1{display:inline;fill:#68BD4B;}
	.st2{display:inline;fill:url(#SVGID_1_);}
	.st3{fill:#F9F9F9;}
	.st4{font-family:'Times-Roman';}
	.st5{font-size:181.7329px;}
	.st6{fill:none;stroke:#80C563;stroke-miterlimit:10;}
	.st7{fill:#505253;}
	.st8{fill:#FFFFFF;stroke:#68BD4B;stroke-miterlimit:10;}
</style>
<g id="Franja" class="st0">
	<path class="st1" d="M299.2,229H26.8v8.1h233.8C272.8,234.5,285.9,231.8,299.2,229z"/>
	
		<linearGradient id="SVGID_1_" gradientUnits="userSpaceOnUse" x1="313.3" y1="62.8409" x2="313.3" y2="262.8409" gradientTransform="matrix(1 0 0 -1 0 282.6818)">
		<stop  offset="0" style="stop-color:#68BD4B"/>
		<stop  offset="1" style="stop-color:#FFFFFF"/>
	</linearGradient>
	<path class="st2" d="M423.1,36.5C384.8,45,207.9,77.9,161.6,83.3S26.8,90.4,26.8,90.4v129.4h316.5c39.5-8.2,77.4-15.7,102.2-19.9
		c55.6-9.3,154.3-9.3,154.3-9.3V19.8C599.8,19.8,495.1,20.5,423.1,36.5z"/>
	<path class="st1" d="M26.8,246.3v16.5c0,0,127-3.8,184.4-15.4c1.7-0.3,3.4-0.7,5.2-1.1H26.8z"/>
</g>
<text transform="matrix(1 0 0 1 159.1481 154.4635)" class="st3 st4 st5">GLC</text>
<text transform="matrix(1 0 0 1 159.1481 154.4635)" class="st6 st4 st5">GLC</text>
<g id="Flecha_2_">
	<g id="Flecha_1_">
		
			<rect x="567.8" y="56.1" transform="matrix(0.7071 -0.7071 0.7071 0.7071 114.1823 425.2289)" class="st7" width="5.2" height="37.4"/>
		
			<rect x="551.7" y="95.2" transform="matrix(0.7071 -0.7071 0.7071 0.7071 97.9221 431.9688)" class="st7" width="37.4" height="5.2"/>
	</g>
	<polygon id="Flecha" class="st7" points="542.2,90.1 542.2,82.5 565,82.5 550,67.5 531.4,86.2 550,104.8 564.7,90.1 	"/>
</g>
<g id="Forma">
	<polygon class="st8" points="84.7,61.4 60.8,61.4 43.9,78.3 43.9,102.2 60.8,119.1 84.7,119.1 101.6,102.2 101.6,78.3 	"/>
	<polygon class="st8" points="43.9,33.1 60.8,50 84.7,50 101.6,33.1 101.6,21.1 43.9,21.1 	"/>
	<polygon class="st8" points="101.6,147 84.7,130.1 60.8,130.1 43.9,147 43.9,158.9 101.6,158.9 	"/>
	<polygon class="st8" points="15.8,118.9 32.7,102 32.7,78.1 15.8,61.2 3.9,61.2 3.9,118.9 	"/>
	<polygon class="st8" points="129.7,61.2 112.8,78.1 112.8,102 129.7,118.9 141.7,118.9 141.7,61.2 	"/>
	<polygon class="st8" points="53.5,57.9 32,36.1 32,21.1 3.9,21.1 3.9,49.9 19.4,49.9 40.4,71.3 	"/>
	<polygon class="st8" points="40.7,109.3 18.8,130.8 3.9,130.8 3.9,158.9 32.6,158.9 32.6,143.4 54,122.4 	"/>
	<polygon class="st8" points="92,122.1 113.5,144 113.5,158.9 141.6,158.9 141.6,130.2 126.1,130.2 105.1,108.8 	"/>
	<polygon class="st8" points="104.9,70.7 126.8,49.3 141.7,49.3 141.7,21.1 113,21.1 113,36.6 91.5,57.6 	"/>
</g>
</svg>
