<?xml version="1.0" encoding="utf-8"?>
<!-- Generator: Adobe Illustrator 25.2.1, SVG Export Plug-In . SVG Version: 6.00 Build 0)  -->
<svg version="1.1" id="Original" xmlns="http://www.w3.org/2000/svg" xmlns:xlink="http://www.w3.org/1999/xlink" x="0px" y="0px"
	 viewBox="0 0 603 251.8" style="enable-background:new 0 0 603 251.8;" xml:space="preserve">
<g id="Franja">
	<path style="fill:#68BD4B;" d="M299.2,214.7H26.8v8.1h233.8C272.8,220.2,285.9,217.5,299.2,214.7z"/>
	<linearGradient id="SVGID_1_" gradientUnits="userSpaceOnUse" x1="313.2554" y1="205.5049" x2="313.2554" y2="5.4753">
		<stop  offset="0" style="stop-color:#68BD4B"/>
		<stop  offset="1" style="stop-color:#FFFFFF"/>
	</linearGradient>
	<path style="fill:url(#SVGID_1_);" d="M423.1,22.2C384.8,30.7,207.9,63.6,161.6,69c-46.3,5.4-134.8,7.1-134.8,7.1v129.4h316.5
		c39.5-8.2,77.4-15.7,102.2-19.9c55.6-9.3,154.3-9.3,154.3-9.3V5.5C599.8,5.5,495.1,6.2,423.1,22.2z"/>
	<path style="fill:#68BD4B;" d="M26.8,232v16.5c0,0,127-3.8,184.4-15.4c1.7-0.3,3.4-0.7,5.2-1.1H26.8z"/>
</g>
<text transform="matrix(1 0 0 1 292.8619 228.293)" style="fill:#486831; font-family:'Times-Roman'; font-size:18.7502px;">Grupo Logístico GLC Chile y Cia. Ltda.</text>
<text transform="matrix(1 0 0 1 159.1481 174.5781)" style="fill:#F9F9F9;stroke:#80C563;stroke-miterlimit:10; font-family:'Times-Roman'; font-size:181.7329px; letter-spacing:1;">GLC</text>
<g id="Flecha_2_">
	<g id="Flecha_1_">
		
			<rect x="551.7" y="92.3" transform="matrix(0.7071 0.7071 -0.7071 0.7071 234.1618 -375.5347)" style="fill:#505253;" width="37.4" height="5.2"/>
		
			<rect x="551.7" y="115.3" transform="matrix(0.7071 -0.7071 0.7071 0.7071 83.6966 437.8594)" style="fill:#505253;" width="37.4" height="5.2"/>
	</g>
	<polygon id="Flecha" style="fill:#505253;" points="542.2,110.2 542.2,102.6 565,102.6 550,87.6 531.4,106.3 550,124.9 
		564.7,110.2 	"/>
</g>
<g id="Forma">
	<polygon style="fill:#FFFFFF;stroke:#68BD4B;stroke-miterlimit:10;" points="84.7,81.5 60.8,81.5 43.9,98.4 43.9,122.3 60.8,139.2 
		84.7,139.2 101.6,122.3 101.6,98.4 	"/>
	<polygon style="fill:#FFFFFF;stroke:#68BD4B;stroke-miterlimit:10;" points="43.9,53.2 60.8,70.1 84.7,70.1 101.6,53.2 101.6,41.2 
		43.9,41.2 	"/>
	<polygon style="fill:#FFFFFF;stroke:#68BD4B;stroke-miterlimit:10;" points="101.6,167.1 84.7,150.2 60.8,150.2 43.9,167.1 
		43.9,179 101.6,179 	"/>
	<polygon style="fill:#FFFFFF;stroke:#68BD4B;stroke-miterlimit:10;" points="15.8,139 32.7,122.1 32.7,98.2 15.8,81.3 3.9,81.3 
		3.9,139 	"/>
	<polygon style="fill:#FFFFFF;stroke:#68BD4B;stroke-miterlimit:10;" points="129.7,81.3 112.8,98.2 112.8,122.1 129.7,139 
		141.7,139 141.7,81.3 	"/>
	<polygon style="fill:#FFFFFF;stroke:#68BD4B;stroke-miterlimit:10;" points="53.5,78 32,56.2 32,41.2 3.9,41.2 3.9,70 19.4,70 
		40.4,91.4 	"/>
	<polygon style="fill:#FFFFFF;stroke:#68BD4B;stroke-miterlimit:10;" points="40.7,129.4 18.8,150.9 3.9,150.9 3.9,179 32.6,179 
		32.6,163.5 54,142.5 	"/>
	<polygon style="fill:#FFFFFF;stroke:#68BD4B;stroke-miterlimit:10;" points="92,142.2 113.5,164.1 113.5,179 141.6,179 
		141.6,150.3 126.1,150.3 105.1,128.9 	"/>
	<polygon style="fill:#FFFFFF;stroke:#68BD4B;stroke-miterlimit:10;" points="104.9,90.8 126.8,69.4 141.7,69.4 141.7,41.2 
		113,41.2 113,56.7 91.5,77.7 	"/>
</g>
</svg>
